<svg width="24" height="25" viewBox="0 0 24 25" fill="none" xmlns="http://www.w3.org/2000/svg">
<path opacity="0.4" d="M11.9491 15.04C8.49909 15.04 5.58813 15.6038 5.58813 17.7795C5.58813 19.9562 8.51789 20.5001 11.9491 20.5001C15.3991 20.5001 18.31 19.9364 18.31 17.7606C18.31 15.584 15.3803 15.04 11.9491 15.04Z" fill="white"/>
<path d="M11.949 12.967C14.2851 12.967 16.1583 11.0831 16.1583 8.73351C16.1583 6.38306 14.2851 4.5 11.949 4.5C9.61293 4.5 7.73975 6.38306 7.73975 8.73351C7.73975 11.0831 9.61293 12.967 11.949 12.967Z" fill="white"/>
<path d="M21.0881 9.71923C21.6925 7.34176 19.9205 5.20654 17.664 5.20654C17.4187 5.20654 17.1841 5.23356 16.9549 5.27949C16.9244 5.28669 16.8904 5.302 16.8725 5.32902C16.8519 5.36324 16.8671 5.40917 16.8895 5.43889C17.5673 6.39528 17.9568 7.5597 17.9568 8.80967C17.9568 10.0074 17.5996 11.1241 16.9728 12.0508C16.9083 12.1462 16.9656 12.275 17.0793 12.2948C17.2369 12.3227 17.3981 12.3371 17.5629 12.3416C19.2059 12.3849 20.6807 11.3213 21.0881 9.71923Z" fill="white"/>
<path opacity="0.4" d="M22.8092 15.317C22.5083 14.6722 21.7821 14.23 20.6781 14.013C20.157 13.8851 18.7467 13.705 17.435 13.7293C17.4153 13.732 17.4045 13.7455 17.4027 13.7545C17.4 13.7671 17.4054 13.7887 17.4314 13.8022C18.0376 14.1039 20.3808 15.416 20.0862 18.1834C20.0737 18.3032 20.1695 18.4068 20.2886 18.3888C20.8652 18.3059 22.3489 17.9853 22.8092 16.9866C23.0635 16.4589 23.0635 15.8456 22.8092 15.317Z" fill="white"/>
<path d="M7.04483 5.27973C6.8165 5.2329 6.58101 5.20679 6.33567 5.20679C4.07926 5.20679 2.30726 7.34201 2.91255 9.71947C3.31906 11.3216 4.79379 12.3851 6.43685 12.3419C6.60161 12.3374 6.76368 12.3221 6.92037 12.2951C7.03409 12.2753 7.09139 12.1465 7.02692 12.051C6.40014 11.1234 6.04288 10.0077 6.04288 8.80991C6.04288 7.55904 6.43327 6.39462 7.11109 5.43913C7.13258 5.40941 7.1487 5.36348 7.12721 5.32926C7.1093 5.30135 7.07617 5.28694 7.04483 5.27973Z" fill="white"/>
<path opacity="0.4" d="M3.32156 14.0127C2.21752 14.2297 1.49225 14.6719 1.19139 15.3167C0.936203 15.8453 0.936203 16.4586 1.19139 16.9872C1.65163 17.9851 3.13531 18.3066 3.71195 18.3885C3.83104 18.4065 3.92595 18.3038 3.91342 18.1832C3.61883 15.4167 5.9621 14.1046 6.56918 13.8029C6.59425 13.7885 6.59962 13.7677 6.59694 13.7542C6.59515 13.7452 6.5853 13.7317 6.5656 13.7299C5.25294 13.7047 3.84358 13.8848 3.32156 14.0127Z" fill="white"/>
</svg>
