<svg width="80" height="65" viewBox="0 0 80 65" fill="none" xmlns="http://www.w3.org/2000/svg">
<path opacity="0.75" d="M-0.000488281 64.4769C17.7221 64.4769 32.1093 50.0822 32.1093 32.3503C32.1093 14.6184 17.7221 0.223648 -0.000488281 0.223648V15.7142V64.4769Z" fill="#536DFE"/>
<path opacity="0.75" d="M15.7809 64.4769C33.5035 64.4769 47.8907 50.0822 47.8907 32.3503C47.8907 14.6184 33.5035 0.223633 15.7809 0.223633V15.7141V64.4769Z" fill="#3F51B5"/>
<path opacity="0.75" d="M31.8623 64.4769C49.5849 64.4769 63.9721 50.0822 63.9721 32.3503C63.9721 14.6184 49.5849 0.223633 31.8623 0.223633V15.7141V64.4769Z" fill="#F44336"/>
<path opacity="0.75" d="M47.8906 64.4769C65.6133 64.4769 80.0005 50.0822 80.0005 32.3503C80.0005 14.6184 65.6133 0.223633 47.8906 0.223633V15.7141V64.4769Z" fill="#FFA000"/>
</svg>
