<svg width="24" height="24" viewBox="0 0 24 24" fill="none" xmlns="http://www.w3.org/2000/svg">
<g clip-path="url(#clip0_48_1728)">
<path d="M0 11.52C0 6.0894 0 3.37413 1.68707 1.68707C3.37413 0 6.0894 0 11.52 0H12.48C17.9106 0 20.6259 0 22.313 1.68707C24 3.37413 24 6.0894 24 11.52V12.48C24 17.9106 24 20.6259 22.313 22.313C20.6259 24 17.9106 24 12.48 24H11.52C6.0894 24 3.37413 24 1.68707 22.313C0 20.6259 0 17.9106 0 12.48V11.52Z" fill="#0073FF"/>
<path d="M12.7688 17.29C7.29878 17.29 4.17883 13.54 4.04883 7.30005H6.78883C6.87883 11.88 8.89878 13.82 10.4988 14.22V7.30005H13.0789V11.25C14.6589 11.08 16.3187 9.28005 16.8787 7.30005H19.4587C19.0287 9.74005 17.2287 11.54 15.9487 12.28C17.2287 12.88 19.2788 14.45 20.0588 17.29H17.2187C16.6087 15.39 15.0889 13.92 13.0789 13.72V17.29H12.7688Z" fill="white"/>
</g>
<defs>
<clipPath id="clip0_48_1728">
<rect width="24" height="24" rx="12" fill="white"/>
</clipPath>
</defs>
</svg>
